<svg width="223" height="73" viewBox="0 0 223 73" fill="none" xmlns="http://www.w3.org/2000/svg">
<path d="M90.2627 50.3172C88.7824 50.3172 87.4872 50.0925 86.377 49.6431C85.2932 49.1673 84.4209 48.5065 83.7601 47.6606C83.1257 46.8148 82.7424 45.8103 82.6102 44.6472H86.1787C86.3373 45.4138 86.7603 46.0218 87.4475 46.4711C88.1612 46.9205 89.0996 47.1452 90.2627 47.1452H91.928C93.329 47.1452 94.3731 46.8676 95.0603 46.3125C95.7476 45.731 96.0912 44.9644 96.0912 44.0128C96.0912 43.0877 95.774 42.3608 95.1396 41.8321C94.5317 41.277 93.6197 40.9069 92.4038 40.7219L89.4697 40.2461C87.3286 39.876 85.7294 39.2152 84.672 38.2636C83.6411 37.2856 83.1257 35.8714 83.1257 34.021C83.1257 32.065 83.7469 30.5583 84.9892 29.5009C86.2316 28.4172 88.0952 27.8753 90.5799 27.8753H92.0866C94.1748 27.8753 95.8533 28.3643 97.1221 29.3423C98.3909 30.3204 99.1575 31.642 99.4218 33.3073H95.8533C95.6947 32.6201 95.2982 32.0782 94.6638 31.6817C94.0294 31.2588 93.1704 31.0473 92.0866 31.0473H90.5799C89.2318 31.0473 88.2405 31.2984 87.6061 31.8006C86.9982 32.3029 86.6942 33.0562 86.6942 34.0607C86.6942 34.9594 86.9585 35.6203 87.4872 36.0432C88.0159 36.4661 88.8485 36.7701 89.9851 36.9551L92.9192 37.4309C95.2718 37.801 96.9768 38.4883 98.0341 39.4927C99.1179 40.4972 99.6598 41.951 99.6598 43.8542C99.6598 45.8632 99.0121 47.4492 97.7169 48.6122C96.4481 49.7489 94.5185 50.3172 91.928 50.3172H90.2627ZM106.464 50V21.0555H110.033V28.1925V32.3557H110.786L110.033 33.1884C110.033 31.4702 110.548 30.1486 111.579 29.2234C112.61 28.2718 114.037 27.796 115.861 27.796C118.055 27.796 119.8 28.47 121.095 29.8181C122.39 31.1662 123.038 33.0034 123.038 35.3295V50H119.469V35.726C119.469 34.1664 119.046 32.9637 118.2 32.1178C117.381 31.2455 116.258 30.8094 114.83 30.8094C113.35 30.8094 112.174 31.272 111.301 32.1971C110.455 33.1223 110.033 34.4308 110.033 36.1225V50H106.464ZM138.486 50.3172C136.741 50.3172 135.234 49.9868 133.966 49.3259C132.697 48.6651 131.706 47.7135 130.992 46.4711C130.305 45.2023 129.961 43.7089 129.961 41.9907V36.2018C129.961 34.4572 130.305 32.9637 130.992 31.7213C131.706 30.479 132.697 29.5274 133.966 28.8665C135.234 28.2057 136.741 27.8753 138.486 27.8753C140.23 27.8753 141.737 28.2057 143.006 28.8665C144.275 29.5274 145.253 30.479 145.94 31.7213C146.654 32.9637 147.011 34.444 147.011 36.1621V41.9907C147.011 43.7089 146.654 45.2023 145.94 46.4711C145.253 47.7135 144.275 48.6651 143.006 49.3259C141.737 49.9868 140.23 50.3172 138.486 50.3172ZM138.486 47.1452C140.045 47.1452 141.261 46.709 142.134 45.8367C143.006 44.9644 143.442 43.6824 143.442 41.9907V36.2018C143.442 34.5101 143.006 33.228 142.134 32.3557C141.261 31.4834 140.045 31.0473 138.486 31.0473C136.953 31.0473 135.737 31.4834 134.838 32.3557C133.966 33.228 133.53 34.5101 133.53 36.2018V41.9907C133.53 43.6824 133.966 44.9644 134.838 45.8367C135.737 46.709 136.953 47.1452 138.486 47.1452ZM159.842 50L152.546 28.1925H156.194L161.031 42.863C161.322 43.7353 161.586 44.5812 161.824 45.4006C162.062 46.1936 162.234 46.8148 162.34 47.2641C162.472 46.8148 162.657 46.1936 162.895 45.4006C163.133 44.5812 163.384 43.7353 163.648 42.863L168.366 28.1925H171.975L164.679 50H159.842ZM186.035 50.3965C184.317 50.3965 182.81 50.0529 181.515 49.3656C180.246 48.6783 179.255 47.7135 178.541 46.4711C177.854 45.2023 177.51 43.7353 177.51 42.07V36.1225C177.51 34.4308 177.854 32.9637 178.541 31.7213C179.255 30.479 180.246 29.5142 181.515 28.8269C182.81 28.1396 184.317 27.796 186.035 27.796C187.753 27.796 189.246 28.1396 190.515 28.8269C191.81 29.5142 192.802 30.479 193.489 31.7213C194.203 32.9637 194.56 34.4308 194.56 36.1225V39.9685H180.999V42.07C180.999 43.7882 181.435 45.1098 182.308 46.035C183.18 46.9337 184.422 47.3831 186.035 47.3831C187.409 47.3831 188.52 47.1452 189.365 46.6694C190.211 46.1672 190.727 45.427 190.912 44.449H194.48C194.242 46.2729 193.344 47.7267 191.784 48.8105C190.251 49.8678 188.335 50.3965 186.035 50.3965ZM191.07 37.5895V36.1225C191.07 34.4043 190.634 33.0827 189.762 32.1575C188.916 31.2323 187.674 30.7697 186.035 30.7697C184.422 30.7697 183.18 31.2323 182.308 32.1575C181.435 33.0827 180.999 34.4043 180.999 36.1225V37.2723H191.348L191.07 37.5895ZM212.783 50C211.514 50 210.404 49.7489 209.452 49.2466C208.501 48.7444 207.761 48.0307 207.232 47.1055C206.703 46.1804 206.439 45.0966 206.439 43.8542V24.3068H199.104V21.0555H210.008V43.8542C210.008 44.753 210.259 45.4667 210.761 45.9953C211.263 46.4976 211.937 46.7487 212.783 46.7487H219.722V50H212.783Z" fill="#5D5D5D"/>
<path d="M31.5131 7.04229L43.5482 13.9921L49.6505 10.4787L31.5131 0L1.21735 17.5056L7.28882 21.019L31.5131 7.04229Z" fill="#5D5D5D"/>
<path d="M55.7222 13.9922L31.5133 27.9689L19.4782 21.0191L13.3914 24.5325L31.5133 34.9958L61.8245 17.5056L55.7222 13.9922Z" fill="#5D5D5D"/>
<path d="M6.08689 37.5076L0 33.9941V54.9207L30.2957 72.4263V65.3994L6.08689 51.4073V37.5076Z" fill="#5D5D5D"/>
<path d="M0 26.9673L24.2089 40.944V54.8437L30.2957 58.3726V37.4306L0 19.9404V26.9673Z" fill="#5D5D5D"/>
<path d="M50.8681 33.9942V26.9673L32.7307 37.4306V72.4263L38.8176 68.9129V40.944L50.8681 33.9942Z" fill="#5D5D5D"/>
<path d="M56.9395 23.4539V51.4073L44.9044 58.3726V65.3995L63.0418 54.9208V19.9404L56.9395 23.4539Z" fill="#5D5D5D"/>
</svg>
